<svg width="427" height="69" viewBox="0 0 427 69" fill="none" xmlns="http://www.w3.org/2000/svg">
<path d="M118.528 32.832L115.408 44H112.768L110.672 36.048L108.48 44L105.856 44.016L102.848 32.832H105.248L107.216 41.504L109.488 32.832H111.984L114.128 41.456L116.112 32.832H118.528ZM123.927 44.144C123.073 44.144 122.305 43.9573 121.623 43.584C120.94 43.2 120.401 42.6613 120.007 41.968C119.623 41.2747 119.431 40.4747 119.431 39.568C119.431 38.6613 119.628 37.8613 120.023 37.168C120.428 36.4747 120.977 35.9413 121.671 35.568C122.364 35.184 123.137 34.992 123.991 34.992C124.844 34.992 125.617 35.184 126.311 35.568C127.004 35.9413 127.548 36.4747 127.943 37.168C128.348 37.8613 128.551 38.6613 128.551 39.568C128.551 40.4747 128.343 41.2747 127.927 41.968C127.521 42.6613 126.967 43.2 126.263 43.584C125.569 43.9573 124.791 44.144 123.927 44.144ZM123.927 42.192C124.332 42.192 124.711 42.096 125.063 41.904C125.425 41.7013 125.713 41.4027 125.927 41.008C126.14 40.6133 126.247 40.1333 126.247 39.568C126.247 38.7253 126.023 38.08 125.575 37.632C125.137 37.1733 124.599 36.944 123.959 36.944C123.319 36.944 122.78 37.1733 122.343 37.632C121.916 38.08 121.703 38.7253 121.703 39.568C121.703 40.4107 121.911 41.0613 122.327 41.52C122.753 41.968 123.287 42.192 123.927 42.192ZM132.434 36.512C132.722 36.0427 133.095 35.6747 133.554 35.408C134.023 35.1413 134.557 35.008 135.154 35.008V37.36H134.562C133.858 37.36 133.325 37.5253 132.962 37.856C132.61 38.1867 132.434 38.7627 132.434 39.584V44H130.194V35.136H132.434V36.512ZM141.911 44L138.903 40.224V44H136.663V32.16H138.903V38.896L141.879 35.136H144.791L140.887 39.584L144.823 44H141.911ZM223.901 21.84C226.381 21.84 228.408 22.64 229.981 24.24C231.555 25.8133 232.341 28.16 232.341 31.28V44H230.581V31.4C230.581 28.8133 229.955 26.84 228.701 25.48C227.475 24.0933 225.781 23.4 223.621 23.4C221.381 23.4 219.581 24.1733 218.221 25.72C216.861 27.2667 216.181 29.5067 216.181 32.44V44H214.421V31.4C214.421 28.8133 213.795 26.84 212.541 25.48C211.315 24.0933 209.621 23.4 207.461 23.4C205.221 23.4 203.421 24.1733 202.061 25.72C200.701 27.2667 200.021 29.5067 200.021 32.44V44H198.221V22.28H200.021V27C200.635 25.2933 201.621 24.0133 202.981 23.16C204.368 22.28 205.955 21.84 207.741 21.84C209.715 21.84 211.408 22.36 212.821 23.4C214.261 24.4133 215.248 25.92 215.781 27.92C216.288 25.92 217.275 24.4133 218.741 23.4C220.208 22.36 221.928 21.84 223.901 21.84ZM248.289 44.32C246.263 44.32 244.436 43.8667 242.809 42.96C241.183 42.0533 239.903 40.76 238.969 39.08C238.063 37.3733 237.609 35.3867 237.609 33.12C237.609 30.88 238.076 28.92 239.009 27.24C239.943 25.5333 241.223 24.24 242.849 23.36C244.503 22.4533 246.343 22 248.369 22C250.396 22 252.223 22.4533 253.849 23.36C255.476 24.24 256.743 25.52 257.649 27.2C258.583 28.88 259.049 30.8533 259.049 33.12C259.049 35.3867 258.583 37.3733 257.649 39.08C256.716 40.76 255.423 42.0533 253.769 42.96C252.143 43.8667 250.316 44.32 248.289 44.32ZM248.289 42.72C249.863 42.72 251.329 42.3733 252.689 41.68C254.076 40.96 255.183 39.88 256.009 38.44C256.836 37 257.249 35.2267 257.249 33.12C257.249 31.04 256.836 29.28 256.009 27.84C255.183 26.4 254.089 25.3333 252.729 24.64C251.369 23.92 249.903 23.56 248.329 23.56C246.756 23.56 245.289 23.92 243.929 24.64C242.596 25.3333 241.516 26.4 240.689 27.84C239.863 29.28 239.449 31.04 239.449 33.12C239.449 35.2267 239.849 37 240.649 38.44C241.476 39.88 242.556 40.96 243.889 41.68C245.249 42.3733 246.716 42.72 248.289 42.72ZM274.31 21.84C276.897 21.84 279.004 22.64 280.63 24.24C282.257 25.8133 283.07 28.16 283.07 31.28V44H281.31V31.4C281.31 28.8133 280.657 26.84 279.35 25.48C278.044 24.0933 276.27 23.4 274.03 23.4C271.684 23.4 269.804 24.1467 268.39 25.64C267.004 27.1333 266.31 29.3467 266.31 32.28V44H264.51V22.28H266.31V26.88C266.924 25.2533 267.937 24.0133 269.35 23.16C270.79 22.28 272.444 21.84 274.31 21.84ZM308.992 31.68C308.992 32.64 308.966 33.36 308.912 33.84H290.152C290.206 35.7867 290.632 37.4267 291.432 38.76C292.232 40.0933 293.286 41.0933 294.592 41.76C295.899 42.4267 297.326 42.76 298.872 42.76C301.006 42.76 302.792 42.24 304.232 41.2C305.672 40.1333 306.579 38.6933 306.952 36.88H308.832C308.406 39.0933 307.312 40.8933 305.552 42.28C303.792 43.64 301.566 44.32 298.872 44.32C296.846 44.32 295.032 43.8667 293.432 42.96C291.832 42.0533 290.579 40.76 289.672 39.08C288.766 37.3733 288.312 35.3867 288.312 33.12C288.312 30.8533 288.752 28.88 289.632 27.2C290.539 25.52 291.792 24.24 293.392 23.36C294.992 22.4533 296.819 22 298.872 22C300.952 22 302.752 22.4533 304.272 23.36C305.819 24.24 306.992 25.4267 307.792 26.92C308.592 28.3867 308.992 29.9733 308.992 31.68ZM307.192 32.36C307.272 30.44 306.926 28.8133 306.152 27.48C305.406 26.1467 304.379 25.16 303.072 24.52C301.766 23.8533 300.352 23.52 298.832 23.52C297.312 23.52 295.899 23.8533 294.592 24.52C293.312 25.16 292.259 26.1467 291.432 27.48C290.632 28.8133 290.206 30.44 290.152 32.36H307.192ZM331.392 22.28L318.752 54.2H316.912L320.952 44L311.832 22.28H313.792L321.952 42L329.552 22.28H331.392Z" fill="white"/>
<path d="M200.898 56.832V58.64H196.242V61.504H199.81V63.28H196.242V68H194.002V56.832H200.898ZM206.423 68.144C205.569 68.144 204.801 67.9573 204.119 67.584C203.436 67.2 202.897 66.6613 202.503 65.968C202.119 65.2747 201.927 64.4747 201.927 63.568C201.927 62.6613 202.124 61.8613 202.519 61.168C202.924 60.4747 203.473 59.9413 204.167 59.568C204.86 59.184 205.633 58.992 206.487 58.992C207.34 58.992 208.113 59.184 208.807 59.568C209.5 59.9413 210.044 60.4747 210.439 61.168C210.844 61.8613 211.047 62.6613 211.047 63.568C211.047 64.4747 210.839 65.2747 210.423 65.968C210.017 66.6613 209.463 67.2 208.759 67.584C208.065 67.9573 207.287 68.144 206.423 68.144ZM206.423 66.192C206.828 66.192 207.207 66.096 207.559 65.904C207.921 65.7013 208.209 65.4027 208.423 65.008C208.636 64.6133 208.743 64.1333 208.743 63.568C208.743 62.7253 208.519 62.08 208.071 61.632C207.633 61.1733 207.095 60.944 206.455 60.944C205.815 60.944 205.276 61.1733 204.839 61.632C204.412 62.08 204.199 62.7253 204.199 63.568C204.199 64.4107 204.407 65.0613 204.823 65.52C205.249 65.968 205.783 66.192 206.423 66.192ZM214.93 56.16V68H212.69V56.16H214.93ZM222.391 68L219.383 64.224V68H217.143V56.16H219.383V62.896L222.359 59.136H225.271L221.367 63.584L225.303 68H222.391ZM229.879 68.144C229.153 68.144 228.503 68.016 227.927 67.76C227.351 67.4933 226.892 67.136 226.551 66.688C226.22 66.24 226.039 65.744 226.007 65.2H228.263C228.305 65.5413 228.471 65.824 228.759 66.048C229.057 66.272 229.425 66.384 229.863 66.384C230.289 66.384 230.62 66.2987 230.855 66.128C231.1 65.9573 231.223 65.7387 231.223 65.472C231.223 65.184 231.073 64.9707 230.775 64.832C230.487 64.6827 230.023 64.5227 229.383 64.352C228.721 64.192 228.177 64.0267 227.751 63.856C227.335 63.6853 226.972 63.424 226.663 63.072C226.364 62.72 226.215 62.2453 226.215 61.648C226.215 61.1573 226.353 60.7093 226.631 60.304C226.919 59.8987 227.324 59.5787 227.847 59.344C228.38 59.1093 229.004 58.992 229.719 58.992C230.775 58.992 231.617 59.2587 232.247 59.792C232.876 60.3147 233.223 61.024 233.287 61.92H231.143C231.111 61.568 230.961 61.2907 230.695 61.088C230.439 60.8747 230.092 60.768 229.655 60.768C229.249 60.768 228.935 60.8427 228.711 60.992C228.497 61.1413 228.391 61.3493 228.391 61.616C228.391 61.9147 228.54 62.144 228.839 62.304C229.137 62.4533 229.601 62.608 230.231 62.768C230.871 62.928 231.399 63.0933 231.815 63.264C232.231 63.4347 232.588 63.7013 232.887 64.064C233.196 64.416 233.356 64.8853 233.367 65.472C233.367 65.984 233.223 66.4427 232.935 66.848C232.657 67.2533 232.252 67.5733 231.719 67.808C231.196 68.032 230.583 68.144 229.879 68.144Z" fill="#33CC95"/>
<path d="M184.142 33.8578C180.365 30.0803 175.342 28 170 28C164.658 28 159.635 30.0803 155.858 33.8578C152.08 37.6353 150 42.6578 150 48C150 53.3422 152.08 58.3646 155.858 62.1422C159.635 65.9198 164.658 68 170 68C175.342 68 180.365 65.9197 184.142 62.1422C187.92 58.3647 190 53.3422 190 48C190 42.6578 187.92 37.6354 184.142 33.8578Z" fill="#33CC95"/>
<g clip-path="url(#clip0)">
<path d="M170.571 36V61.1429" stroke="white" stroke-width="2" stroke-linecap="round" stroke-linejoin="round"/>
<path d="M176.286 40.5714H167.714C166.653 40.5714 165.636 40.9929 164.886 41.743C164.136 42.4931 163.714 43.5106 163.714 44.5714C163.714 45.6323 164.136 46.6497 164.886 47.3999C165.636 48.15 166.653 48.5714 167.714 48.5714H173.429C174.489 48.5714 175.507 48.9929 176.257 49.743C177.007 50.4931 177.429 51.5106 177.429 52.5714C177.429 53.6323 177.007 54.6497 176.257 55.3999C175.507 56.15 174.489 56.5714 173.429 56.5714H163.714" stroke="white" stroke-width="2" stroke-linecap="round" stroke-linejoin="round"/>
</g>
<defs>
<clipPath id="clip0">
<rect width="27.4286" height="27.4286" fill="white" transform="translate(156.857 34.8571)"/>
</clipPath>
</defs>
</svg>
