<svg width="257" height="69" viewBox="0 0 257 69" fill="none" xmlns="http://www.w3.org/2000/svg">
<path d="M24.6836 24.832L21.5636 36H18.9236L16.8276 28.048L14.6356 36L12.0116 36.016L9.00363 24.832H11.4036L13.3716 33.504L15.6436 24.832H18.1396L20.2836 33.456L22.2676 24.832H24.6836ZM30.0823 36.144C29.2289 36.144 28.4609 35.9573 27.7783 35.584C27.0956 35.2 26.5569 34.6613 26.1623 33.968C25.7783 33.2747 25.5863 32.4747 25.5863 31.568C25.5863 30.6613 25.7836 29.8613 26.1783 29.168C26.5836 28.4747 27.1329 27.9413 27.8263 27.568C28.5196 27.184 29.2929 26.992 30.1463 26.992C30.9996 26.992 31.7729 27.184 32.4663 27.568C33.1596 27.9413 33.7036 28.4747 34.0983 29.168C34.5036 29.8613 34.7063 30.6613 34.7063 31.568C34.7063 32.4747 34.4983 33.2747 34.0823 33.968C33.6769 34.6613 33.1223 35.2 32.4183 35.584C31.7249 35.9573 30.9463 36.144 30.0823 36.144ZM30.0823 34.192C30.4876 34.192 30.8663 34.096 31.2183 33.904C31.5809 33.7013 31.8689 33.4027 32.0823 33.008C32.2956 32.6133 32.4023 32.1333 32.4023 31.568C32.4023 30.7253 32.1783 30.08 31.7303 29.632C31.2929 29.1733 30.7543 28.944 30.1143 28.944C29.4743 28.944 28.9356 29.1733 28.4983 29.632C28.0716 30.08 27.8583 30.7253 27.8583 31.568C27.8583 32.4107 28.0663 33.0613 28.4823 33.52C28.9089 33.968 29.4423 34.192 30.0823 34.192ZM38.5894 28.512C38.8774 28.0427 39.2507 27.6747 39.7094 27.408C40.1787 27.1413 40.7121 27.008 41.3094 27.008V29.36H40.7174C40.0134 29.36 39.4801 29.5253 39.1174 29.856C38.7654 30.1867 38.5894 30.7627 38.5894 31.584V36H36.3494V27.136H38.5894V28.512ZM48.0661 36L45.0581 32.224V36H42.8181V24.16H45.0581V30.896L48.0341 27.136H50.9461L47.0421 31.584L50.9781 36H48.0661Z" fill="white"/>
<path d="M106.675 51.2045V53.0125H102.019V55.8765H105.587V57.6525H102.019V62.3725H99.779V51.2045H106.675ZM112.199 62.5165C111.346 62.5165 110.578 62.3298 109.895 61.9565C109.213 61.5725 108.674 61.0338 108.279 60.3405C107.895 59.6471 107.703 58.8471 107.703 57.9405C107.703 57.0338 107.901 56.2338 108.295 55.5405C108.701 54.8471 109.25 54.3138 109.943 53.9405C110.637 53.5565 111.41 53.3645 112.263 53.3645C113.117 53.3645 113.89 53.5565 114.583 53.9405C115.277 54.3138 115.821 54.8471 116.215 55.5405C116.621 56.2338 116.823 57.0338 116.823 57.9405C116.823 58.8471 116.615 59.6471 116.199 60.3405C115.794 61.0338 115.239 61.5725 114.535 61.9565C113.842 62.3298 113.063 62.5165 112.199 62.5165ZM112.199 60.5645C112.605 60.5645 112.983 60.4685 113.335 60.2765C113.698 60.0738 113.986 59.7751 114.199 59.3805C114.413 58.9858 114.519 58.5058 114.519 57.9405C114.519 57.0978 114.295 56.4525 113.847 56.0045C113.41 55.5458 112.871 55.3165 112.231 55.3165C111.591 55.3165 111.053 55.5458 110.615 56.0045C110.189 56.4525 109.975 57.0978 109.975 57.9405C109.975 58.7831 110.183 59.4338 110.599 59.8925C111.026 60.3405 111.559 60.5645 112.199 60.5645ZM120.706 50.5325V62.3725H118.466V50.5325H120.706ZM128.168 62.3725L125.16 58.5965V62.3725H122.92V50.5325H125.16V57.2685L128.136 53.5085H131.048L127.144 57.9565L131.08 62.3725H128.168ZM135.655 62.5165C134.93 62.5165 134.279 62.3885 133.703 62.1325C133.127 61.8658 132.669 61.5085 132.327 61.0605C131.997 60.6125 131.815 60.1165 131.783 59.5725H134.039C134.082 59.9138 134.247 60.1965 134.535 60.4205C134.834 60.6445 135.202 60.7565 135.639 60.7565C136.066 60.7565 136.397 60.6711 136.631 60.5005C136.877 60.3298 136.999 60.1111 136.999 59.8445C136.999 59.5565 136.85 59.3431 136.551 59.2045C136.263 59.0551 135.799 58.8951 135.159 58.7245C134.498 58.5645 133.954 58.3991 133.527 58.2285C133.111 58.0578 132.749 57.7965 132.439 57.4445C132.141 57.0925 131.991 56.6178 131.991 56.0205C131.991 55.5298 132.13 55.0818 132.407 54.6765C132.695 54.2711 133.101 53.9511 133.623 53.7165C134.157 53.4818 134.781 53.3645 135.495 53.3645C136.551 53.3645 137.394 53.6311 138.023 54.1645C138.653 54.6871 138.999 55.3965 139.063 56.2925H136.919C136.887 55.9405 136.738 55.6631 136.471 55.4605C136.215 55.2471 135.869 55.1405 135.431 55.1405C135.026 55.1405 134.711 55.2151 134.487 55.3645C134.274 55.5138 134.167 55.7218 134.167 55.9885C134.167 56.2871 134.317 56.5165 134.615 56.6765C134.914 56.8258 135.378 56.9805 136.007 57.1405C136.647 57.3005 137.175 57.4658 137.591 57.6365C138.007 57.8071 138.365 58.0738 138.663 58.4365C138.973 58.7885 139.133 59.2578 139.143 59.8445C139.143 60.3565 138.999 60.8151 138.711 61.2205C138.434 61.6258 138.029 61.9458 137.495 62.1805C136.973 62.4045 136.359 62.5165 135.655 62.5165Z" fill="#33CC95"/>
<path d="M91.3327 25.7682C87.5491 22.0485 82.5184 20 77.1675 20C71.8167 20 66.786 22.0485 63.0024 25.7682C59.2187 29.4878 57.135 34.4335 57.135 39.6939C57.135 44.9543 59.2188 49.8998 63.0024 53.6196C66.7859 57.3394 71.8167 59.3878 77.1675 59.3878C82.5184 59.3878 87.5491 57.3393 91.3327 53.6196C95.1163 49.8999 97.2 44.9543 97.2 39.6939C97.2 34.4335 95.1163 29.4879 91.3327 25.7682Z" fill="#33CC95"/>
<g clip-path="url(#clip0)">
<path d="M77.7399 27.8776V52.6356" stroke="white" stroke-width="2" stroke-linecap="round" stroke-linejoin="round"/>
<path d="M83.4635 32.379H74.8781C73.8155 32.379 72.7964 32.794 72.0451 33.5327C71.2937 34.2713 70.8716 35.2732 70.8716 36.3178C70.8716 37.3624 71.2937 38.3643 72.0451 39.1029C72.7964 39.8416 73.8155 40.2566 74.8781 40.2566H80.6017C81.6643 40.2566 82.6833 40.6715 83.4347 41.4102C84.1861 42.1489 84.6082 43.1507 84.6082 44.1953C84.6082 45.24 84.1861 46.2418 83.4347 46.9805C82.6833 47.7191 81.6643 48.1341 80.6017 48.1341H70.8716" stroke="white" stroke-width="2" stroke-linecap="round" stroke-linejoin="round"/>
</g>
<path d="M143.984 21.84C146.464 21.84 148.491 22.64 150.064 24.24C151.637 25.8133 152.424 28.16 152.424 31.28V44H150.664V31.4C150.664 28.8133 150.037 26.84 148.784 25.48C147.557 24.0933 145.864 23.4 143.704 23.4C141.464 23.4 139.664 24.1733 138.304 25.72C136.944 27.2667 136.264 29.5067 136.264 32.44V44H134.504V31.4C134.504 28.8133 133.877 26.84 132.624 25.48C131.397 24.0933 129.704 23.4 127.544 23.4C125.304 23.4 123.504 24.1733 122.144 25.72C120.784 27.2667 120.104 29.5067 120.104 32.44V44H118.304V22.28H120.104V27C120.717 25.2933 121.704 24.0133 123.064 23.16C124.451 22.28 126.037 21.84 127.824 21.84C129.797 21.84 131.491 22.36 132.904 23.4C134.344 24.4133 135.331 25.92 135.864 27.92C136.371 25.92 137.357 24.4133 138.824 23.4C140.291 22.36 142.011 21.84 143.984 21.84ZM168.372 44.32C166.345 44.32 164.519 43.8667 162.892 42.96C161.265 42.0533 159.985 40.76 159.052 39.08C158.145 37.3733 157.692 35.3867 157.692 33.12C157.692 30.88 158.159 28.92 159.092 27.24C160.025 25.5333 161.305 24.24 162.932 23.36C164.585 22.4533 166.425 22 168.452 22C170.479 22 172.305 22.4533 173.932 23.36C175.559 24.24 176.825 25.52 177.732 27.2C178.665 28.88 179.132 30.8533 179.132 33.12C179.132 35.3867 178.665 37.3733 177.732 39.08C176.799 40.76 175.505 42.0533 173.852 42.96C172.225 43.8667 170.399 44.32 168.372 44.32ZM168.372 42.72C169.945 42.72 171.412 42.3733 172.772 41.68C174.159 40.96 175.265 39.88 176.092 38.44C176.919 37 177.332 35.2267 177.332 33.12C177.332 31.04 176.919 29.28 176.092 27.84C175.265 26.4 174.172 25.3333 172.812 24.64C171.452 23.92 169.985 23.56 168.412 23.56C166.839 23.56 165.372 23.92 164.012 24.64C162.679 25.3333 161.599 26.4 160.772 27.84C159.945 29.28 159.532 31.04 159.532 33.12C159.532 35.2267 159.932 37 160.732 38.44C161.559 39.88 162.639 40.96 163.972 41.68C165.332 42.3733 166.799 42.72 168.372 42.72ZM194.393 21.84C196.98 21.84 199.086 22.64 200.713 24.24C202.34 25.8133 203.153 28.16 203.153 31.28V44H201.393V31.4C201.393 28.8133 200.74 26.84 199.433 25.48C198.126 24.0933 196.353 23.4 194.113 23.4C191.766 23.4 189.886 24.1467 188.473 25.64C187.086 27.1333 186.393 29.3467 186.393 32.28V44H184.593V22.28H186.393V26.88C187.006 25.2533 188.02 24.0133 189.433 23.16C190.873 22.28 192.526 21.84 194.393 21.84ZM229.075 31.68C229.075 32.64 229.048 33.36 228.995 33.84H210.235C210.288 35.7867 210.715 37.4267 211.515 38.76C212.315 40.0933 213.368 41.0933 214.675 41.76C215.982 42.4267 217.408 42.76 218.955 42.76C221.088 42.76 222.875 42.24 224.315 41.2C225.755 40.1333 226.662 38.6933 227.035 36.88H228.915C228.488 39.0933 227.395 40.8933 225.635 42.28C223.875 43.64 221.648 44.32 218.955 44.32C216.928 44.32 215.115 43.8667 213.515 42.96C211.915 42.0533 210.662 40.76 209.755 39.08C208.848 37.3733 208.395 35.3867 208.395 33.12C208.395 30.8533 208.835 28.88 209.715 27.2C210.622 25.52 211.875 24.24 213.475 23.36C215.075 22.4533 216.902 22 218.955 22C221.035 22 222.835 22.4533 224.355 23.36C225.902 24.24 227.075 25.4267 227.875 26.92C228.675 28.3867 229.075 29.9733 229.075 31.68ZM227.275 32.36C227.355 30.44 227.008 28.8133 226.235 27.48C225.488 26.1467 224.462 25.16 223.155 24.52C221.848 23.8533 220.435 23.52 218.915 23.52C217.395 23.52 215.982 23.8533 214.675 24.52C213.395 25.16 212.342 26.1467 211.515 27.48C210.715 28.8133 210.288 30.44 210.235 32.36H227.275ZM251.475 22.28L238.835 54.2H236.995L241.035 44L231.915 22.28H233.875L242.035 42L249.635 22.28H251.475Z" fill="white"/>
<defs>
<clipPath id="clip0">
<rect width="27.4732" height="27.0087" fill="white" transform="translate(64.0033 26.7522)"/>
</clipPath>
</defs>
</svg>
